<svg width="201" height="42" viewBox="0 0 201 42" fill="none" xmlns="http://www.w3.org/2000/svg">
<path d="M87.5518 33.8866V15.0438H78.1406V9.83203H102.169V15.0438H92.758V33.8866H87.5518Z" fill="#173058"/>
<path d="M87.5518 33.8866V15.0438H78.1406V9.83203H102.169V15.0438H92.758V33.8866H87.5518Z" fill="white"/>
<path d="M25.7068 33.8866V9.83203H31.0465L44.4958 25.8684V9.83203H49.7354V33.8866H44.3957L30.8796 17.7834V33.8866H25.7068Z" fill="#173058"/>
<path d="M25.7068 33.8866V9.83203H31.0465L44.4958 25.8684V9.83203H49.7354V33.8866H44.3957L30.8796 17.7834V33.8866H25.7068Z" fill="white"/>
<path d="M135.056 33.8866C133.699 33.8866 132.531 33.4076 131.552 32.45C130.595 31.4699 130.117 30.3006 130.117 28.942V14.7766C130.117 13.4179 130.595 12.2597 131.552 11.302C132.531 10.322 133.699 9.83203 135.056 9.83203H154.079V15.0438H136.391C135.657 15.0438 135.29 15.0438 135.29 15.0438C135.29 15.0438 135.29 15.4113 135.29 16.1463V27.5723C135.29 28.3073 135.29 28.6748 135.29 28.6748C135.29 28.6748 135.657 28.6748 136.391 28.6748H154.079V33.8866H135.056Z" fill="#173058"/>
<path d="M135.056 33.8866C133.699 33.8866 132.531 33.4076 131.552 32.45C130.595 31.4699 130.117 30.3006 130.117 28.942V14.7766C130.117 13.4179 130.595 12.2597 131.552 11.302C132.531 10.322 133.699 9.83203 135.056 9.83203H154.079V15.0438H136.391C135.657 15.0438 135.29 15.0438 135.29 15.0438C135.29 15.0438 135.29 15.4113 135.29 16.1463V27.5723C135.29 28.3073 135.29 28.6748 135.29 28.6748C135.29 28.6748 135.657 28.6748 136.391 28.6748H154.079V33.8866H135.056Z" fill="white"/>
<path fill-rule="evenodd" clip-rule="evenodd" d="M158.047 2.38636C158.047 1.06841 159.114 0 160.431 0H197.618C198.934 0 200.002 1.06841 200.002 2.38636V39.6136C200.002 40.9316 198.934 42 197.618 42H160.431C159.114 42 158.047 40.9316 158.047 39.6136V2.38636ZM163.048 33.8864V9.83182H168.221V19.2532H182.404V9.83182H187.577V33.8864H182.404V24.465H168.221V33.8864H163.048ZM189.341 31.2805V33.8864H196.207V32.8555H190.724C190.584 32.8555 190.489 32.8333 190.438 32.7886C190.393 32.7378 190.371 32.6424 190.371 32.5023V31.4236C190.371 31.2836 190.393 31.1914 190.438 31.1468C190.489 31.096 190.584 31.0705 190.724 31.0705H194.967C195.304 31.0705 195.593 30.9495 195.835 30.7077C196.083 30.466 196.207 30.1732 196.207 29.8295V28.2545C196.207 27.9109 196.083 27.6181 195.835 27.3764C195.593 27.1282 195.304 27.0041 194.967 27.0041H190.581C190.238 27.0041 189.945 27.1282 189.704 27.3764C189.462 27.6181 189.341 27.9109 189.341 28.2545V28.6555H190.371V28.3977C190.371 28.2576 190.393 28.1655 190.438 28.1209C190.489 28.0701 190.584 28.0445 190.724 28.0445H194.824C194.964 28.0445 195.056 28.0701 195.101 28.1209C195.152 28.1655 195.177 28.2576 195.177 28.3977V29.6864C195.177 29.8264 195.152 29.9219 195.101 29.9727C195.056 30.0174 194.964 30.0395 194.824 30.0395H190.581C190.238 30.0395 189.945 30.1605 189.704 30.4023C189.462 30.644 189.341 30.9368 189.341 31.2805Z" fill="#173058"/>
<path fill-rule="evenodd" clip-rule="evenodd" d="M158.047 2.38636C158.047 1.06841 159.114 0 160.431 0H197.618C198.934 0 200.002 1.06841 200.002 2.38636V39.6136C200.002 40.9316 198.934 42 197.618 42H160.431C159.114 42 158.047 40.9316 158.047 39.6136V2.38636ZM163.048 33.8864V9.83182H168.221V19.2532H182.404V9.83182H187.577V33.8864H182.404V24.465H168.221V33.8864H163.048ZM189.341 31.2805V33.8864H196.207V32.8555H190.724C190.584 32.8555 190.489 32.8333 190.438 32.7886C190.393 32.7378 190.371 32.6424 190.371 32.5023V31.4236C190.371 31.2836 190.393 31.1914 190.438 31.1468C190.489 31.096 190.584 31.0705 190.724 31.0705H194.967C195.304 31.0705 195.593 30.9495 195.835 30.7077C196.083 30.466 196.207 30.1732 196.207 29.8295V28.2545C196.207 27.9109 196.083 27.6181 195.835 27.3764C195.593 27.1282 195.304 27.0041 194.967 27.0041H190.581C190.238 27.0041 189.945 27.1282 189.704 27.3764C189.462 27.6181 189.341 27.9109 189.341 28.2545V28.6555H190.371V28.3977C190.371 28.2576 190.393 28.1655 190.438 28.1209C190.489 28.0701 190.584 28.0445 190.724 28.0445H194.824C194.964 28.0445 195.056 28.0701 195.101 28.1209C195.152 28.1655 195.177 28.2576 195.177 28.3977V29.6864C195.177 29.8264 195.152 29.9219 195.101 29.9727C195.056 30.0174 194.964 30.0395 194.824 30.0395H190.581C190.238 30.0395 189.945 30.1605 189.704 30.4023C189.462 30.644 189.341 30.9368 189.341 31.2805Z" fill="white"/>
<path d="M0 9.78418H22.1692V15.0342H0V9.78418Z" fill="#173058"/>
<path d="M0 9.78418H22.1692V15.0342H0V9.78418Z" fill="white"/>
<path d="M0 28.6362H22.1692V33.8862H0V28.6362Z" fill="#173058"/>
<path d="M0 28.6362H22.1692V33.8862H0V28.6362Z" fill="white"/>
<path d="M0 19.3296H18.8319V24.5796H0V19.3296Z" fill="#173058"/>
<path d="M0 19.3296H18.8319V24.5796H0V19.3296Z" fill="white"/>
<path d="M8.2317e-07 31.3806L0 12.5283H5.24434V31.3806H8.2317e-07Z" fill="#173058"/>
<path d="M8.2317e-07 31.3806L0 12.5283H5.24434V31.3806H8.2317e-07Z" fill="white"/>
<path d="M53.3984 9.78418H75.5677V15.0342H53.3984V9.78418Z" fill="#173058"/>
<path d="M53.3984 9.78418H75.5677V15.0342H53.3984V9.78418Z" fill="white"/>
<path d="M53.3984 28.6367H75.5677V33.8867H53.3984V28.6367Z" fill="#173058"/>
<path d="M53.3984 28.6367H75.5677V33.8867H53.3984V28.6367Z" fill="white"/>
<path d="M53.3984 19.3291H72.2304V24.5791H53.3984V19.3291Z" fill="#173058"/>
<path d="M53.3984 19.3291H72.2304V24.5791H53.3984V19.3291Z" fill="white"/>
<path d="M104.648 9.78418H126.818V15.0342H104.648V9.78418Z" fill="#173058"/>
<path d="M104.648 9.78418H126.818V15.0342H104.648V9.78418Z" fill="white"/>
<path d="M104.648 28.6362H126.818V33.8862H104.648V28.6362Z" fill="#173058"/>
<path d="M104.648 28.6362H126.818V33.8862H104.648V28.6362Z" fill="white"/>
<path d="M104.648 19.3296H123.48V24.5796H104.648V19.3296Z" fill="#173058"/>
<path d="M104.648 19.3296H123.48V24.5796H104.648V19.3296Z" fill="white"/>
</svg>
